<svg height="24" viewBox="0 0 24 24" width="24" xmlns="http://www.w3.org/2000/svg"><path d="m7.14100714.285c1.25715-.05762143 1.65786429-.07071429 4.85899286-.07071429 3.20175 0 3.6018214.01374643 4.8582857.07071429 1.2551786.05696786 2.1123214.25667143 2.862.54803571.7863214.29604643 1.4986072.7599 2.0873572 1.35928929.5994642.588675 1.0633928 1.301025 1.3593214 2.08737857.2913214.7497.4903928 1.60678929.5480357 2.86130357.0576429 1.25715.0707143 1.65786429.0707143 4.85899286 0 3.2011071-.0137143 3.6018214-.0707143 4.8590357-.057 1.2544286-.2567143 2.1115714-.5480357 2.86125-.3011786.7746429-.7045714 1.4326072-1.3593214 2.0873572-.5886429.5994642-1.3010358 1.0633928-2.0873572 1.3593214-.7496786.2913214-1.6068214.4903928-2.86125.5480357-1.2572143.0576429-1.6579286.0707143-4.8590357.0707143-3.20112857 0-3.60184286-.0137143-4.85899286-.0707143-1.25451428-.057-2.11160357-.2567143-2.86130357-.5480357-.77458928-.3011786-1.43261786-.7045714-2.08737857-1.3593214-.59949643-.5886429-1.06338214-1.3010358-1.35928929-2.0873572-.29136428-.7496786-.49041428-1.6068214-.54803571-2.86125-.05762143-1.2572143-.07071429-1.6572857-.07071429-4.8590357 0-3.20178214.01374643-3.60184286.07071429-4.85832857.05696786-1.25517857.25667143-2.11226786.54803571-2.86196786.29604643-.7863.7599-1.49861786 1.35928929-2.08737857.58866429-.59949643 1.30101429-1.06338214 2.08737857-1.35928929.7497-.29136428 1.60678929-.49041428 2.86130357-.54803571zm9.62170716 2.12142857c-1.24275-.05631428-1.6159286-.06875357-4.7627143-.06875357-3.14678571 0-3.51999643.01243929-4.76273571.06875357-1.14910715.05238214-1.77309643.24422143-2.18822143.40595357-.54999643.21345-.94285715.46880357-1.35535715.88130357-.41183571.4125-.66785357.80536072-.88130357 1.35535715-.16173214.415125-.35357143 1.03911428-.40595357 2.18822143-.05631428 1.24273928-.06875357 1.61595-.06875357 4.76273571 0 3.1467857.01243929 3.5199643.06875357 4.7627143.05238214 1.1491071.24422143 1.7731071.40595357 2.1882857.18880715.5119286.48996429.975.88130357 1.3553571.38025.3912858.84339643.6924643 1.35535715.88125.415125.1617858 1.03911428.3535715 2.18822143.4059643 1.24273928.0563572 1.61529642.0687857 4.76273571.0687857 3.1474286 0 3.5199643-.0124285 4.7627143-.0687857 1.1491071-.0523928 1.7731071-.2441785 2.1882857-.4059643.5499643-.2134285.9428571-.46875 1.3553571-.88125.3912858-.38025.6924643-.8434285.88125-1.3553571.1617858-.4151786.3535715-1.0391786.4059643-2.1882857.0563572-1.24275.0687857-1.6159286.0687857-4.7627143 0-3.14678571-.0124285-3.51999643-.0687857-4.76273571-.0523928-1.14910715-.2441785-1.77309643-.4059643-2.18822143-.2134285-.54999643-.46875-.94285715-.88125-1.35535715-.4125-.41183571-.8053928-.66785357-1.3553571-.88130357-.4151786-.16173214-1.0391786-.35357143-2.1882857-.40595357zm-6.2675357 13.22667853c.4771071.1976786.9883928.2993572 1.5048214.2993572 1.0430357 0 2.0432143-.4143214 2.7806786-1.1517857.7375714-.7374643 1.1518928-1.73775 1.1518928-2.7806786s-.4143214-2.04321429-1.1518928-2.7807c-.7374643-.73748571-1.7376429-1.15180714-2.7806786-1.15180714-.5164286 0-1.0277143.10172143-1.5048214.29934643-.4772143.197625-.91068217.48728571-1.27584646.85246071-.36516428.36516429-.65483571.7986643-.85246071 1.2757714-.197625.4771072-.29933572.9885-.29933572 1.5049286s.10171072 1.0278214.29933572 1.5049286c.197625.4771071.48729643.9106071.85246071 1.27575.36516429.3651428.79863216.6548571 1.27584646.8524285zm-2.77869646-7.91666781c1.13606786-1.13606786 2.67691076-1.77430715 4.28351786-1.77430715 1.6067143 0 3.1475357.63823929 4.2835714 1.77430715 1.1360357 1.13606785 1.7742857 2.67695361 1.7742857 4.28356071s-.63825 3.1474286-1.7742857 4.2835714c-1.1360357 1.1360357-2.6768571 1.7742857-4.2835714 1.7742857-1.6066071 0-3.14745-.63825-4.28351786-1.7742857-1.13606785-1.1361428-1.77430714-2.6769643-1.77430714-4.2835714s.63823929-3.14749286 1.77430714-4.28356071zm11.68457146-.87174643c.2685-.26855357.4193571-.632775.4193571-1.01255357 0-.37978929-.1508571-.74401072-.4193571-1.01255358-.2686072-.26854285-.6327857-.41941071-1.0126072-.41941071-.3797143 0-.744.15086786-1.0125.41941071-.2686071.26854286-.4194643.63276429-.4194643 1.01255358 0 .37977857.1508572.744.4194643 1.01255357.2685.26854285.6327857.41941071 1.0125.41941071.3798215 0 .744-.15086786 1.0126072-.41941071z" fill="#fff" fill-rule="evenodd"/></svg>