<svg height="24" viewBox="0 0 24 24" width="24" xmlns="http://www.w3.org/2000/svg"><path d="m23.6307 2.6244931c-.8638034.38275862-1.7917345.64137931-2.7672517.75827587.9951724-.59586207 1.7586207-1.54137931 2.1186207-2.66689656-.9310345.5524138-1.9624138.95379311-3.06 1.16896552-.8793104-.93517241-2.1310345-1.52068965-3.5172414-1.52068965-2.6606897 0-4.8186207 2.15793103-4.8186207 4.82068965 0 .37655173.0434483.74275862.1241379 1.09655173-4.00654135-.20172414-7.5558517-2.12068966-9.93309308-5.03586207-.4137931.7137931-.65172413 1.54137931-.65172413 2.42275862 0 1.67172413.85137931 3.14793103 2.14344827 4.01172413-.79034483-.02586206-1.53310345-.24206896-2.18275862-.60310344v.06206896c0 2.33481724 1.66034483 4.28274824 3.86586207 4.72550694-.40551724.1096551-.83068965.1675862-1.26931034.1675862-.31034483 0-.61344828-.0289656-.90724138-.0848276.61344827 1.9137931 2.39275862 3.3082758 4.50206896 3.3455172-1.65 1.2931035-3.72827586 2.0637931-5.98551724 2.0637931-.38896552 0-.77275862-.0227586-1.15034483-.0672414 2.13310345 1.3686207 4.66551724 2.1651725 7.3862069 2.1651725 8.86550692 0 13.71206892-7.3427587 13.71206892-13.71103452 0-.20689656-.0051724-.41586207-.0144827-.62275862.9413793-.68068966 1.7586207-1.52793104 2.4031034-2.49310345l.002069-.00310345z" fill="#fff" transform="translate(0 2)"/></svg>