<svg height="32" viewBox="0 0 32 32" width="32" xmlns="http://www.w3.org/2000/svg"><g fill="none" fill-rule="evenodd"><path d="m0 0h32v32h-32z" fill="#fff"/><path d="m24 23.2105263c2.192 0 3.52 1.296229 4.72 1.8898486 1.04.5155117 1.84.9060509 3.28.9060509v3.0462058c-2.192 0-3.52-.6561059-4.72-1.2497255-1.04-.5467548-1.84-1.5800358-3.28-1.5800358-1.392 0-2.24 1.0801457-3.28 1.5800358-1.2.5779981-2.512 1.2497255-4.72 1.2497255s-3.52-.6561059-4.72-1.2497255c-1.04-.5467548-1.872-1.5800358-3.28-1.5800358s-2.24 1.0645241-3.28 1.5800358c-1.2.5779981-2.56 1.2497255-4.72 1.2497255v-3.0149627c1.408 0 2.24-.4217823 3.28-.937294 1.2-.5936196 2.512-1.8898486 4.72-1.8898486s3.52 1.3118505 4.72 1.8898486c1.04.5467548 1.84.937294 3.28.937294 1.392 0 2.24-.4374039 3.28-.937294 1.2-.5936196 2.528-1.8898486 4.72-1.8898486zm0-7.5789474c2.192 0 3.52 1.296229 4.72 1.8898486 1.04.5155117 1.84.9060509 3.28.9060509v3.0462058c-2.192 0-3.52-.6561058-4.72-1.2497254-1.04-.5467549-1.84-1.5800359-3.28-1.5800359-1.392 0-2.24 1.0801457-3.28 1.5800359-1.2.577998-2.512 1.2497254-4.72 1.2497254s-3.52-.6561058-4.72-1.2497254c-1.04-.5467549-1.872-1.5800359-3.28-1.5800359s-2.24 1.0645241-3.28 1.5800359c-1.2.577998-2.56 1.2497254-4.72 1.2497254v-3.0149626c1.408 0 2.24-.4217824 3.28-.9372941 1.2-.5936196 2.512-1.8898486 4.72-1.8898486s3.52 1.3118506 4.72 1.8898486c1.04.5467549 1.84.9372941 3.28.9372941 1.392 0 2.24-.4374039 3.28-.9372941 1.2-.5936196 2.528-1.8898486 4.72-1.8898486zm0-7.42105258c2.192 0 3.52 1.29622895 4.72 1.88984858 1.04.5155117 1.84.9060509 3.28.9060509v3.0462058c-2.192 0-3.52-.6561059-4.72-1.2497255-1.04-.5467548-1.84-1.5800358-3.28-1.5800358-1.392 0-2.24 1.0801457-3.28 1.5800358-1.2.5779981-2.512 1.2497255-4.72 1.2497255s-3.52-.6561059-4.72-1.2497255c-1.04-.5467548-1.872-1.5800358-3.28-1.5800358s-2.24 1.0645241-3.28 1.5800358c-1.2.5779981-2.56 1.2497255-4.72 1.2497255v-3.0149627c1.408 0 2.24-.4217823 3.28-.937294 1.2-.59361963 2.512-1.88984858 4.72-1.88984858s3.52 1.31185052 4.72 1.88984858c1.04.5467548 1.84.937294 3.28.937294 1.392 0 2.24-.4374039 3.28-.937294 1.2-.59361963 2.528-1.88984858 4.72-1.88984858zm0-7.57894737c2.192 0 3.52 1.29622895 4.72 1.88984854 1.04.51551175 1.84.90605095 3.28.90605095v3.04620577c-2.192 0-3.52-.65610586-4.72-1.24972544-1.04-.54675489-1.84-1.58003583-3.28-1.58003583-1.392 0-2.24 1.08014565-3.28 1.58003583-1.2.57799801-2.512 1.24972544-4.72 1.24972544s-3.52-.65610586-4.72-1.24972544c-1.04-.54675489-1.872-1.58003583-3.28-1.58003583s-2.24 1.06452408-3.28 1.58003583c-1.2.57799801-2.56 1.24972544-4.72 1.24972544v-3.01496264c1.408 0 2.24-.42178233 3.28-.93729408 1.2-.59361959 2.512-1.88984854 4.72-1.88984854s3.52 1.31185052 4.72 1.88984854c1.04.54675488 1.84.93729408 3.28.93729408 1.392 0 2.24-.4374039 3.28-.93729408 1.2-.59361959 2.528-1.88984854 4.72-1.88984854z" fill="#3f51b5" transform="translate(0 2)"/></g></svg>