<svg height="180" viewBox="0 0 180 180" width="180" xmlns="http://www.w3.org/2000/svg"><path d="m135 132.3c12.33 0 19.8 7.388505 26.55 10.772137 5.85 2.938417 10.35 5.16449 18.45 5.16449v17.363373c-12.33 0-19.8-3.739803-26.55-7.123435-5.85-3.116503-10.35-9.006204-18.45-9.006204-7.83 0-12.6 6.15683-18.45 9.006204-6.75 3.294589-14.13 7.123435-26.55 7.123435s-19.8-3.739803-26.55-7.123435c-5.85-3.116503-10.53-9.006204-18.45-9.006204s-12.6 6.067787-18.45 9.006204c-6.75 3.294589-14.4 7.123435-26.55 7.123435v-17.185287c7.92 0 12.6-2.404159 18.45-5.342576 6.75-3.383632 14.13-10.772137 26.55-10.772137s19.8 7.477548 26.55 10.772137c5.85 3.116503 10.35 5.342576 18.45 5.342576 7.83 0 12.6-2.493202 18.45-5.342576 6.75-3.383632 14.22-10.772137 26.55-10.772137zm0-43.2c12.33 0 19.8 7.3885051 26.55 10.7721367 5.85 2.9384173 10.35 5.1644903 18.45 5.1644903v17.363373c-12.33 0-19.8-3.739803-26.55-7.123435-5.85-3.116503-10.35-9.006204-18.45-9.006204-7.83 0-12.6 6.15683-18.45 9.006204-6.75 3.294589-14.13 7.123435-26.55 7.123435s-19.8-3.739803-26.55-7.123435c-5.85-3.116503-10.53-9.006204-18.45-9.006204s-12.6 6.067787-18.45 9.006204c-6.75 3.294589-14.4 7.123435-26.55 7.123435v-17.185287c7.92 0 12.6-2.404159 18.45-5.3425763 6.75-3.3836316 14.13-10.7721367 26.55-10.7721367s19.8 7.477548 26.55 10.7721367c5.85 3.1165033 10.35 5.3425763 18.45 5.3425763 7.83 0 12.6-2.493202 18.45-5.3425763 6.75-3.3836316 14.22-10.7721367 26.55-10.7721367zm0-42.3c12.33 0 19.8 7.3885051 26.55 10.7721367 5.85 2.9384169 10.35 5.1644904 18.45 5.1644904v17.3633729c-12.33 0-19.8-3.7398034-26.55-7.123435-5.85-3.1165029-10.35-9.0062042-18.45-9.0062042-7.83 0-12.6 6.1568301-18.45 9.0062042-6.75 3.2945887-14.13 7.123435-26.55 7.123435s-19.8-3.7398034-26.55-7.123435c-5.85-3.1165029-10.53-9.0062042-18.45-9.0062042s-12.6 6.0677872-18.45 9.0062042c-6.75 3.2945887-14.4 7.123435-26.55 7.123435v-17.185287c7.92 0 12.6-2.4041594 18.45-5.3425763 6.75-3.3836316 14.13-10.7721367 26.55-10.7721367s19.8 7.477548 26.55 10.7721367c5.85 3.1165028 10.35 5.3425763 18.45 5.3425763 7.83 0 12.6-2.4932023 18.45-5.3425763 6.75-3.3836316 14.22-10.7721367 26.55-10.7721367zm0-43.2c12.33 0 19.8 7.3885051 26.55 10.7721367 5.85 2.9384169 10.35 5.1644904 18.45 5.1644904v17.3633729c-12.33 0-19.8-3.7398034-26.55-7.123435-5.85-3.1165029-10.35-9.0062042-18.45-9.0062042-7.83 0-12.6 6.1568301-18.45 9.0062042-6.75 3.2945887-14.13 7.123435-26.55 7.123435s-19.8-3.7398034-26.55-7.123435c-5.85-3.1165029-10.53-9.0062042-18.45-9.0062042s-12.6 6.0677872-18.45 9.0062042c-6.75 3.2945887-14.4 7.123435-26.55 7.123435v-17.185287c7.92 0 12.6-2.4041594 18.45-5.3425763 6.75-3.3836316 14.13-10.7721367 26.55-10.7721367s19.8 7.477548 26.55 10.7721367c5.85 3.1165028 10.35 5.3425763 18.45 5.3425763 7.83 0 12.6-2.4932023 18.45-5.3425763 6.75-3.3836316 14.22-10.7721367 26.55-10.7721367z" fill-rule="evenodd" transform="translate(0 9)"/></svg>